# xmcd
#
# Track frame offsets:
# 150
# 30837
# 54657
# 80082
# 111561
# 135486
# 173661
# 194966
# 233029
#
# Disc length: 3440 seconds
#
#
# Revision: 0
# Processed by: cddbd v1.5.2PL0 Copyright (c) Steve Scherf et al.
# Submitted via: FreeRIP 2.96 
#
DISCID=790d6e09
DTITLE=King Crimson - Fission Trip
DYEAR=2005
DGENRE=Progressive Rock
TTITLE0=Make It All Up
TTITLE1=Something's Going On
TTITLE2=Spectrum
TTITLE3=Master
TTITLE4=Going
TTITLE5=Santa Maria
TTITLE6=Silent Life
TTITLE7=The Valley Below
TTITLE8=Better Be Right
EXTD=
EXTT0=
EXTT1=
EXTT2=
EXTT3=
EXTT4=
EXTT5=
EXTT6=
EXTT7=
EXTT8=
PLAYORDER=
